/* XPM */
static char *wxDockingBorderLeft[]={
"60 60 25 1",
"g c #4296ce",
"l c #4a4d52",
"h c #4a96ce",
"u c #4a9ace",
"v c #529ace",
"n c #565a5e",
"r c #5e6167",
"o c #63666c",
"s c #696b71",
"t c #797c81",
"p c #828487",
"m c #86878e",
"i c #94bede",
"k c #a0a2a4",
"j c #a5a6ad",
"w c #a5c7de",
"q c #b6b7b9",
". c #c6c3c6",
"# c #c6c7ce",
"d c #c6cbce",
"e c #dedfe7",
"a c #e7e3e7",
"c c #e7e7e7",
"f c #efebef",
"b c #efefef",
"............................................................",
"............................................................",
"..##abbbbbbbbbbbbbbbbbbbbbbbbbbbbbbbbbbbbbbbbbbbbbbbbbbcdd..",
"..##abbbbbbbbbbbbbbbbbbbbbbbbbbbbbbbbbbbbbbbbbbbbbbbbbbcdd..",
"..eeaffbbbbbbbbbbbbbbbbbbbbbbbbbbbbbbbbbbbbbbbbbbbbbbbbacc..",
"..fffbbbbbbbbbbbbbbbbbbbbbbbbbbbbbbbbbbbbbbbbbbbbbbbbbbbbb..",
"..fffbbbbbbbbbbbbbbbbbbbbbbbbbbbbbbbbbbbbbbbbbbbbbbbbbbbbb..",
"..bbbbbbbbbbbbbbbbbbbbbbbbbbbbbbbbbbbbbbbbbbbbbbbbbbbbbbbb..",
"..bbbbbbbbbbbbbbbbbbbbbbbbbbbbbbbbbbbbbbbbbbbbbbbbbbbbbbbb..",
"..bbbbbbbggggggggggggggggghhiibbbbbbbbbbbbbbbbbbbbbbbbbbbb..",
"..bbbbbbbggggggggggggggggghhiibbbbbbbbbbbbbbbbbbbbbbbbbbbb..",
"..bbbbbbbgggggbbbbbbbbbbbbbbhhbbbbbbbbbbbbbbbbbbbbbbbbbbbb..",
"..bbbbbbbgggggbbbbbbbbbbbbbbggbbbbbbbbbbbbbbbbbbbbbbbbbbbb..",
"..bbbbbbbgggggbbbbbbbbbbbbbbggbbbbbbbbbbbbbbbbbbbbbbbbbbbb..",
"..bbbbbbbgggggbbbbbbbbbbbbbbggbbbbbbbbbbbbbbbbbbbbbbbbbbbb..",
"..bbbbbbbgggggbbbbbbbbbbbbbbggbbbbbbbbbbbbbbbbbbbbbbbbbbbb..",
"..bbbbbbbgggggbbbbbbbbbbbbbbggbbbbbbbbbbbbbbbbbbbbbbbbbbbb..",
"..bbbbbbbgggggbbbbbbbbbbbbbbggbbbbbbbbbbbbbbbbbbbbbbbbbbbb..",
"..bbbbbbbgggggbbbbbbbbbbbbbbggbbbbbbbbbbbbbbbbbbbbbbbbbbbb..",
"..bbbbbbbgggggbbbbbbbbbbbbbbggbbbbbbbbbbbbbbbbbbbbbbbbbbbb..",
"..bbbbbbbgggggbbbbbbbbbbbbbbggbbbbbbbbbbbbbbbbbbbbbbbbbbbb..",
"..bbbbbbbgggggbbbbbbbbbbbbbbggbbbbbbbbbbbbbbbbbbbbbbbbbbbb..",
"..bbbbbbbgggggbbbbbbbbbbbbbbggbbbbbbbbbbbbbbbbbbbbbbbbbbbb..",
"..bbbbbbbgggggbbbbbbbbbbbbbbggbbbbbbbbbbbjjbbbbbbbjjbbbbbb..",
"..bbbbbbbgggggbbbbbbbbbbbbbbggbbbbbbbbbbkljbbbbbbkljbbbbbb..",
"..bbbbbbbgggggbbbbbbbbbbbbbbggbbbbbbbbbjmllbbbbbjmllbbbbbb..",
"..bbbbbbbgggggbbbbbbbbbbbbbbggbbbbbbbjnllllbbbjnllllbbbbbb..",
"..bbbbbbbgggggbbbbbbbbbbbbbbggbbbbbbbjollllbbbjollllbbbbbb..",
"..bbbbbbbgggggbbbbbbbbbbbbbbggbbbbbklllllllbklllllllbbbbbb..",
"..bbbbbbbgggggbbbbbbbbbbbbbbggbbbbbplllllllbplllllllbbbbbb..",
"..bbbbbbbgggggbbbbbbbbbbbbbbggbbbbbqrllllllbqrllllllbbbbbb..",
"..bbbbbbbgggggbbbbbbbbbbbbbbggbbbbbbjllllllbbjllllllbbbbbb..",
"..bbbbbbbgggggbbbbbbbbbbbbbbggbbbbbbbjsllllbbbjsllllbbbbbb..",
"..bbbbbbbgggggbbbbbbbbbbbbbbggbbbbbbbjmllllbbbjmllllbbbbbb..",
"..bbbbbbbgggggbbbbbbbbbbbbbbggbbbbbbbbbjrllbbbbbjrllbbbbbb..",
"..bbbbbbbgggggbbbbbbbbbbbbbbggbbbbbbbbbbqtjbbbbbbqtjbbbbbb..",
"..bbbbbbbgggggbbbbbbbbbbbbbbggbbbbbbbbbbbjjbbbbbbbjjbbbbbb..",
"..bbbbbbbgggggbbbbbbbbbbbbbbggbbbbbbbbbbbbbbbbbbbbbbbbbbbb..",
"..bbbbbbbgggggbbbbbbbbbbbbbbggbbbbbbbbbbbbbbbbbbbbbbbbbbbb..",
"..bbbbbbbgggggbbbbbbbbbbbbbbggbbbbbbbbbbbbbbbbbbbbbbbbbbbb..",
"..bbbbbbbgggggbbbbbbbbbbbbbbggbbbbbbbbbbbbbbbbbbbbbbbbbbbb..",
"..bbbbbbbgggggbbbbbbbbbbbbbbggbbbbbbbbbbbbbbbbbbbbbbbbbbbb..",
"..bbbbbbbgggggbbbbbbbbbbbbbbggbbbbbbbbbbbbbbbbbbbbbbbbbbbb..",
"..bbbbbbbgggggbbbbbbbbbbbbbbggbbbbbbbbbbbbbbbbbbbbbbbbbbbb..",
"..bbbbbbbgggggbbbbbbbbbbbbbbggbbbbbbbbbbbbbbbbbbbbbbbbbbbb..",
"..bbbbbbbgggggbbbbbbbbbbbbbbggbbbbbbbbbbbbbbbbbbbbbbbbbbbb..",
"..bbbbbbbgggggbbbbbbbbbbbbbbggbbbbbbbbbbbbbbbbbbbbbbbbbbbb..",
"..bbbbbbbgggggbbbbbbbbbbbbbbggbbbbbbbbbbbbbbbbbbbbbbbbbbbb..",
"..bbbbbbbgggggbbbbbbbbbbbbbbuubbbbbbbbbbbbbbbbbbbbbbbbbbbb..",
"..bbbbbbbgggggggggggggggggvvwwbbbbbbbbbbbbbbbbbbbbbbbbbbbb..",
"..bbbbbbbgggggggggggggggggvvwwbbbbbbbbbbbbbbbbbbbbbbbbbbbb..",
"..bbbbbbbbbbbbbbbbbbbbbbbbbbbbbbbbbbbbbbbbbbbbbbbbbbbbbbbb..",
"..bbbbbbbbbbbbbbbbbbbbbbbbbbbbbbbbbbbbbbbbbbbbbbbbbbbbbbbb..",
"..fffbbbbbbbbbbbbbbbbbbbbbbbbbbbbbbbbbbbbbbbbbbbbbbbbbbfbb..",
"..fffbbbbbbbbbbbbbbbbbbbbbbbbbbbbbbbbbbbbbbbbbbbbbbbbbbfbb..",
"..eeaffbbbbbbbbbbbbbbbbbbbbbbbbbbbbbbbbbbbbbbbbbbbbbbffaaa..",
"..##effbbbbbbbbbbbbbbbbbbbbbbbbbbbbbbbbbbbbbbbbbbbbbbffa##..",
"..##effbbbbbbbbbbbbbbbbbbbbbbbbbbbbbbbbbbbbbbbbbbbbbbffa##..",
"............................................................",
"............................................................"};
