/* XPM */
static char *wxDockingBorderDown[]={
"60 60 25 1",
"s c #4296ce",
"g c #4a4d52",
"r c #4a96ce",
"t c #4a9ace",
"v c #529ace",
"m c #565a5e",
"k c #5e6167",
"n c #63666c",
"o c #696b71",
"h c #797c81",
"p c #828487",
"j c #86878e",
"q c #94bede",
"i c #a0a2a4",
"f c #a5a6ad",
"u c #a5c7de",
"l c #b6b7b9",
". c #c6c3c6",
"d c #c6c7ce",
"# c #c6cbce",
"w c #dedfe7",
"c c #e7e3e7",
"a c #e7e7e7",
"e c #efebef",
"b c #efefef",
"............................................................",
"............................................................",
"..##abbbbbbbbbbbbbbbbbbbbbbbbbbbbbbbbbbbbbbbbbbbbbbbbbbcdd..",
"..##abbbbbbbbbbbbbbbbbbbbbbbbbbbbbbbbbbbbbbbbbbbbbbbbbbcdd..",
"..aacbbbbbbbbbbbbbbbbbbbbbbbbbbbbbbbbbbbbbbbbbbbbbbbbeeccc..",
"..bbbbbbbbbbbbbbbbbbbbbbbbbbbbbbbbbbbbbbbbbbbbbbbbbbbbbeee..",
"..bbbbbbbbbbbbbbbbbbbbbbbbbbbbbbbbbbbbbbbbbbbbbbbbbbbbbeee..",
"..bbbbbbbbbbbbbbbbbbbbbbbbbbbbbbbbbbbbbbbbbbbbbbbbbbbbbbbb..",
"..bbbbbbbbbbbbbbbbbbbbbbbbbbbbbbbbbbbbbbbbbbbbbbbbbbbbbbbb..",
"..bbbbbbbbbbbbbbbbbbbbbffggggggggggffbbbbbbbbbbbbbbbbbbbbb..",
"..bbbbbbbbbbbbbbbbbbbbbfggggggggggghfbbbbbbbbbbbbbbbbbbbbb..",
"..bbbbbbbbbbbbbbbbbbbbbbijggggggggklbbbbbbbbbbbbbbbbbbbbbb..",
"..bbbbbbbbbbbbbbbbbbbbbbbfggggggggfbbbbbbbbbbbbbbbbbbbbbbb..",
"..bbbbbbbbbbbbbbbbbbbbbbbbmnggggojbbbbbbbbbbbbbbbbbbbbbbbb..",
"..bbbbbbbbbbbbbbbbbbbbbbbbffggggffbbbbbbbbbbbbbbbbbbbbbbbb..",
"..bbbbbbbbbbbbbbbbbbbbbbbbbbggkfbbbbbbbbbbbbbbbbbbbbbbbbbb..",
"..bbbbbbbbbbbbbbbbbbbbbbbbbbiplbbbbbbbbbbbbbbbbbbbbbbbbbbb..",
"..bbbbbbbbbbbbbbbbbbbbbbbbbbbbbbbbbbbbbbbbbbbbbbbbbbbbbbbb..",
"..bbbbbbbbbbbbbbbbbbbbbffggggggggggffbbbbbbbbbbbbbbbbbbbbb..",
"..bbbbbbbbbbbbbbbbbbbbbfggggggggggghfbbbbbbbbbbbbbbbbbbbbb..",
"..bbbbbbbbbbbbbbbbbbbbbbijggggggggklbbbbbbbbbbbbbbbbbbbbbb..",
"..bbbbbbbbbbbbbbbbbbbbbbbfggggggggfbbbbbbbbbbbbbbbbbbbbbbb..",
"..bbbbbbbbbbbbbbbbbbbbbbbbmnggggojbbbbbbbbbbbbbbbbbbbbbbbb..",
"..bbbbbbbbbbbbbbbbbbbbbbbbffggggffbbbbbbbbbbbbbbbbbbbbbbbb..",
"..bbbbbbbbbbbbbbbbbbbbbbbbbbggkfbbbbbbbbbbbbbbbbbbbbbbbbbb..",
"..bbbbbbbbbbbbbbbbbbbbbbbbbbiplbbbbbbbbbbbbbbbbbbbbbbbbbbb..",
"..bbbbbbbbbbbbbbbbbbbbbbbbbbbbbbbbbbbbbbbbbbbbbbbbbbbbbbbb..",
"..bbbbbbbbbbbbbbbbbbbbbbbbbbbbbbbbbbbbbbbbbbbbbbbbbbbbbbbb..",
"..bbbbbbbbbbbbbbbbbbbbbbbbbbbbbbbbbbbbbbbbbbbbbbbbbbbbbbbb..",
"..bbbbbbbbbbbbbbbbbbbbbbbbbbbbbbbbbbbbbbbbbbbbbbbbbbbbbbbb..",
"..bbbbbbbqqrsssssssssssssssssssssssssssssssssssstuubbbbbbb..",
"..bbbbbbbqqrsssssssssssssssssssssssssssssssssssstuubbbbbbb..",
"..bbbbbbbrrbbbbbbbbbbbbbbbbbbbbbbbbbbbbbbbbbbbbbbvvbbbbbbb..",
"..bbbbbbbrrbbbbbbbbbbbbbbbbbbbbbbbbbbbbbbbbbbbbbbvvbbbbbbb..",
"..bbbbbbbssbbbbbbbbbbbbbbbbbbbbbbbbbbbbbbbbbbbbbbssbbbbbbb..",
"..bbbbbbbssbbbbbbbbbbbbbbbbbbbbbbbbbbbbbbbbbbbbbbssbbbbbbb..",
"..bbbbbbbssbbbbbbbbbbbbbbbbbbbbbbbbbbbbbbbbbbbbbbssbbbbbbb..",
"..bbbbbbbssbbbbbbbbbbbbbbbbbbbbbbbbbbbbbbbbbbbbbbssbbbbbbb..",
"..bbbbbbbssbbbbbbbbbbbbbbbbbbbbbbbbbbbbbbbbbbbbbbssbbbbbbb..",
"..bbbbbbbssbbbbbbbbbbbbbbbbbbbbbbbbbbbbbbbbbbbbbbssbbbbbbb..",
"..bbbbbbbssbbbbbbbbbbbbbbbbbbbbbbbbbbbbbbbbbbbbbbssbbbbbbb..",
"..bbbbbbbssbbbbbbbbbbbbbbbbbbbbbbbbbbbbbbbbbbbbbbssbbbbbbb..",
"..bbbbbbbssbbbbbbbbbbbbbbbbbbbbbbbbbbbbbbbbbbbbbbssbbbbbbb..",
"..bbbbbbbssbbbbbbbbbbbbbbbbbbbbbbbbbbbbbbbbbbbbbbssbbbbbbb..",
"..bbbbbbbssbbbbbbbbbbbbbbbbbbbbbbbbbbbbbbbbbbbbbbssbbbbbbb..",
"..bbbbbbbssbbbbbbbbbbbbbbbbbbbbbbbbbbbbbbbbbbbbbbssbbbbbbb..",
"..bbbbbbbssssssssssssssssssssssssssssssssssssssssssbbbbbbb..",
"..bbbbbbbssssssssssssssssssssssssssssssssssssssssssbbbbbbb..",
"..bbbbbbbssssssssssssssssssssssssssssssssssssssssssbbbbbbb..",
"..bbbbbbbssssssssssssssssssssssssssssssssssssssssssbbbbbbb..",
"..bbbbbbbssssssssssssssssssssssssssssssssssssssssssbbbbbbb..",
"..bbbbbbbbbbbbbbbbbbbbbbbbbbbbbbbbbbbbbbbbbbbbbbbbbbbbbbbb..",
"..bbbbbbbbbbbbbbbbbbbbbbbbbbbbbbbbbbbbbbbbbbbbbbbbbbbbbbbb..",
"..bbebbbbbbbbbbbbbbbbbbbbbbbbbbbbbbbbbbbbbbbbbbbbbbbbbbeee..",
"..bbebbbbbbbbbbbbbbbbbbbbbbbbbbbbbbbbbbbbbbbbbbbbbbbbbbeee..",
"..ccceebbbbbbbbbbbbbbbbbbbbbbbbbbbbbbbbbbbbbbbbbbbbbbeecww..",
"..ddweebbbbbbbbbbbbbbbbbbbbbbbbbbbbbbbbbbbbbbbbbbbbbbeewdd..",
"..ddweebbbbbbbbbbbbbbbbbbbbbbbbbbbbbbbbbbbbbbbbbbbbbbeewdd..",
"............................................................",
"............................................................"};
