/* XPM */
static char * wxDockingTab[] = {
"60 60 19 1",
" 	c #C6C3C6",
".	c #C6C7CE",
"+	c #DEDFE7",
"@	c #EFEBEF",
"#	c #EFEFEF",
"$	c #E7E3E7",
"%	c #4296CE",
"&	c #4397CF",
"*	c #4296CD",
"=	c #A5C7DE",
"-	c #4798CF",
";	c #4597CE",
">	c #4295CE",
",	c #4B9BD0",
"'	c #E7EBED",
")	c #E9ECEE",
"!	c #EDEEEF",
"~	c #E7E7E7",
"{	c #C6CBCE",
"                                                            ",
"                                                            ",
"  ..+@@##############################################@@+..  ",
"  ..+@@##############################################@@+..  ",
"  ++$@@##############################################@@$$$  ",
"  @@@##################################################@##  ",
"  @@@##################################################@##  ",
"  ########################################################  ",
"  ########################################################  ",
"  #######%%%%%%%%%%%%%%%%%%%%%%%%%%%%%%%%%%%%%%%%%%#######  ",
"  #######%%%%%%%%%%%%%%%%%%%%%%%%%%%%%%%%%%%%%%%%%%#######  ",
"  #######%%%%%%%%%%%%%%%%%%%%%%%%%%%%%%%%%%%%%%%%%%#######  ",
"  #######%%%%%%%%%%%%%%%&*%%%%%%%%%%%%&*%%%%%%%%%%%#######  ",
"  #######%%%%%%%%%%%%%%%%%%%%%%%%%%%%%%%%%%%%%%%%%%#######  ",
"  #######%%############%%%===========%%%=========%%#######  ",
"  #######%%############%%%===========%%%=========%%#######  ",
"  #######%%############%%%===========%%%=========%%#######  ",
"  #######%%############%%%===========%%%=========%%#######  ",
"  #######%%#%%%%###%%%#%%%=%%%%======%%%=%%%%=%%=%%#######  ",
"  #######%%############%%%=======%%%=%%%=========%%#######  ",
"  #######%%############%%%===========%%%=========%%#######  ",
"  #######%%#%%%##%%%###%%%===========%%%=========%%#######  ",
"  #######%%############%%%==%%%%=%%%=%%%=%%%%%%==%%#######  ",
"  #######%%############%%%===========%%%=========%%#######  ",
"  #######%%############%%%===========%%%=========%%#######  ",
"  #######%%############%%%===========%%%=========%%#######  ",
"  #######%%############-%%===========-%%=========%%#######  ",
"  #######%%;%*%%%%%%%%%>%%%%%%%;%%%%%>%%%%%%%%%%;*%#######  ",
"  #######%%%%%%%%%%%%%%%%%%%%%%%%%%%%%%%%%%%%%%%%%%#######  ",
"  #######%>%%%%%%%%%%%%%%%%%%%>%%%%%%%%%%%%%%%>%,%%#######  ",
"  #######'################################################  ",
"  ########################################################  ",
"  ########################################################  ",
"  ########################################################  ",
"  ########################################################  ",
"  ########################################################  ",
"  ########################################################  ",
"  ########################################################  ",
"  ########################################################  ",
"  ########################################################  ",
"  ########################################################  ",
"  ########################################################  ",
"  ########################################################  ",
"  ########################################################  ",
"  ########################################################  ",
"  ########################################################  ",
"  ########################################################  ",
"  ########################################################  ",
"  ########################################################  ",
"  ########################################################  ",
"  #######)########################################!#######  ",
"  ########################################################  ",
"  ########################################################  ",
"  @@@#####################################################  ",
"  @@@#####################################################  ",
"  $$$@@################################################$~~  ",
"  ..$##################################################~{{  ",
"  ..$##################################################~{{  ",
"                                                            ",
"                                                            "};
