/* XPM */
static char *wxDockingBorderRight[]={
"60 60 25 1",
"g c #4296ce",
"l c #4a4d52",
"t c #4a96ce",
"h c #4a9ace",
"f c #529ace",
"s c #565a5e",
"m c #5e6167",
"r c #63666c",
"o c #696b71",
"j c #797c81",
"p c #828487",
"n c #86878e",
"u c #94bede",
"q c #a0a2a4",
"i c #a5a6ad",
"e c #a5c7de",
"k c #b6b7b9",
". c #c6c3c6",
"# c #c6c7ce",
"w c #c6cbce",
"d c #dedfe7",
"a c #e7e3e7",
"v c #e7e7e7",
"b c #efebef",
"c c #efefef",
"............................................................",
"............................................................",
"..##abbccccccccccccccccccccccccccccccccccccccccccccccbbd##..",
"..##abbccccccccccccccccccccccccccccccccccccccccccccccbbd##..",
"..aaabbccccccccccccccccccccccccccccccccccccccccccccccbbadd..",
"..ccbccccccccccccccccccccccccccccccccccccccccccccccccccbbb..",
"..ccbccccccccccccccccccccccccccccccccccccccccccccccccccbbb..",
"..cccccccccccccccccccccccccccccccccccccccccccccccccccccccc..",
"..cccccccccccccccccccccccccccccccccccccccccccccccccccccccc..",
"..cccccccccccccccccccccccccccceeffgggggggggggggggggccccccc..",
"..cccccccccccccccccccccccccccceeffgggggggggggggggggccccccc..",
"..cccccccccccccccccccccccccccchhccccccccccccccgggggccccccc..",
"..ccccccccccccccccccccccccccccggccccccccccccccgggggccccccc..",
"..ccccccccccccccccccccccccccccggccccccccccccccgggggccccccc..",
"..ccccccccccccccccccccccccccccggccccccccccccccgggggccccccc..",
"..ccccccccccccccccccccccccccccggccccccccccccccgggggccccccc..",
"..ccccccccccccccccccccccccccccggccccccccccccccgggggccccccc..",
"..ccccccccccccccccccccccccccccggccccccccccccccgggggccccccc..",
"..ccccccccccccccccccccccccccccggccccccccccccccgggggccccccc..",
"..ccccccccccccccccccccccccccccggccccccccccccccgggggccccccc..",
"..ccccccccccccccccccccccccccccggccccccccccccccgggggccccccc..",
"..ccccccccccccccccccccccccccccggccccccccccccccgggggccccccc..",
"..ccccccccccccccccccccccccccccggccccccccccccccgggggccccccc..",
"..cccccciicccccccciiccccccccccggccccccccccccccgggggccccccc..",
"..ccccccijkcccccccijkcccccccccggccccccccccccccgggggccccccc..",
"..ccccccllmiccccccllmiccccccccggccccccccccccccgggggccccccc..",
"..ccccccllllniccccllllniccccccggccccccccccccccgggggccccccc..",
"..cccccclllloicccclllloiccccccggccccccccccccccgggggccccccc..",
"..ccccccllllllicccllllllicccccggccccccccccccccgggggccccccc..",
"..ccccccllllllmkccllllllmkccccggccccccccccccccgggggccccccc..",
"..cccccclllllllpcclllllllpccccggccccccccccccccgggggccccccc..",
"..cccccclllllllqcclllllllqccccggccccccccccccccgggggccccccc..",
"..ccccccllllriccccllllriccccccggccccccccccccccgggggccccccc..",
"..ccccccllllsiccccllllsiccccccggccccccccccccccgggggccccccc..",
"..ccccccllniccccccllniccccccccggccccccccccccccgggggccccccc..",
"..ccccccilqcccccccilqcccccccccggccccccccccccccgggggccccccc..",
"..cccccciicccccccciiccccccccccggccccccccccccccgggggccccccc..",
"..ccccccccccccccccccccccccccccggccccccccccccccgggggccccccc..",
"..ccccccccccccccccccccccccccccggccccccccccccccgggggccccccc..",
"..ccccccccccccccccccccccccccccggccccccccccccccgggggccccccc..",
"..ccccccccccccccccccccccccccccggccccccccccccccgggggccccccc..",
"..ccccccccccccccccccccccccccccggccccccccccccccgggggccccccc..",
"..ccccccccccccccccccccccccccccggccccccccccccccgggggccccccc..",
"..ccccccccccccccccccccccccccccggccccccccccccccgggggccccccc..",
"..ccccccccccccccccccccccccccccggccccccccccccccgggggccccccc..",
"..ccccccccccccccccccccccccccccggccccccccccccccgggggccccccc..",
"..ccccccccccccccccccccccccccccggccccccccccccccgggggccccccc..",
"..ccccccccccccccccccccccccccccggccccccccccccccgggggccccccc..",
"..ccccccccccccccccccccccccccccttccccccccccccccgggggccccccc..",
"..ccccccccccccccccccccccccccccuuttgggggggggggggggggccccccc..",
"..ccccccccccccccccccccccccccccuuttgggggggggggggggggccccccc..",
"..cccccccccccccccccccccccccccccccccccccccccccccccccccccccc..",
"..cccccccccccccccccccccccccccccccccccccccccccccccccccccccc..",
"..cccccccccccccccccccccccccccccccccccccccccccccccccccccbbb..",
"..cccccccccccccccccccccccccccccccccccccccccccccccccccccbbb..",
"..vvaccccccccccccccccccccccccccccccccccccccccccccccccbbadd..",
"..wwvcccccccccccccccccccccccccccccccccccccccccccccccccca##..",
"..wwvcccccccccccccccccccccccccccccccccccccccccccccccccca##..",
"............................................................",
"............................................................"};
