/* XPM */
static char *wxDockingFloat[]={
"60 60 43 1",
"m c #000000",
"k c #414141",
"w c #4295ce",
"g c #4296cd",
"e c #4296ce",
"f c #4397cf",
"v c #4597ce",
"i c #4798cf",
"J c #4a96ce",
"L c #4a9ace",
"r c #4e9cd1",
"H c #529ace",
"h c #529ed1",
"u c #58a1d2",
"j c #676767",
"q c #7d7d7d",
"M c #94bede",
"p c #9d9d9d",
"o c #9dc5e0",
"K c #a5c7de",
"n c #b4d0e3",
". c #c6c3c6",
"# c #c6c7ce",
"O c #c6cbce",
"a c #dedfe7",
"I c #dee7ef",
"z c #dfe7ec",
"t c #e0e7ec",
"y c #e5eaee",
"d c #e7e3e7",
"N c #e7e7e7",
"s c #e8ebed",
"G c #e8ecef",
"F c #eaedee",
"E c #eceeef",
"x c #eeeeef",
"l c #eeefef",
"b c #efebef",
"c c #efefef",
"C c #f0f0f0",
"B c #f1f1f1",
"A c #f2f2f2",
"D c #f3f3f3",
"............................................................",
"............................................................",
"..##abbccccccccccccccccccccccccccccccccccccccccccccccbba##..",
"..##abbccccccccccccccccccccccccccccccccccccccccccccccbba##..",
"..aadbbccccccccccccccccccccccccccccccccccccccccccccccbbddd..",
"..bbbccccccccccccccccccccccccccccccccccccccccccccccccccbcc..",
"..bbbccccccccccccccccccccccccccccccccccccccccccccccccccbcc..",
"..cccccccccccccccccccccccccccccccccccccccccccccccccccccccc..",
"..cccccccccccccccccccccccccccccccccccccccccccccccccccccccc..",
"..ccccccceeeeeeeeeeeeeeeeeeeeeeeeeeeeeeeeeeeeeeeeeeccccccc..",
"..ccccccceeeeeeeeeeeeeeeeeeeeeeeeeeeeeeeeeeeeeeeeeeccccccc..",
"..ccccccceeeeeeeeeeeeeeeeeeeeeeeeeeeeeeeeeeeeeeeeeeccccccc..",
"..ccccccceeeeeeeeeeeeeeeeeeeeeeeeeeeeeeeeeeeeeeeeeeccccccc..",
"..ccccccceeeeeeeeeeeeeeeeeeeeeeeeeeeeeeeefgeeeeeeeeccccccc..",
"..ccccccceecccccccccccccccccccccccccccccheicccccceeccccccc..",
"..ccccccceeccccccccccccccccccccccccccccceeecjkccceeccccccc..",
"..ccccccceeccccccccccccccccccccccccccccleeeckmccceeccccccc..",
"..ccccccceecnoccnocccnoccccnocccnocccnoceeecccpqceeccccccc..",
"..ccccccceecoeccoecccoeccccoecccoecccoeciercccqmqeeccccccc..",
"..ccccccceecccccccccccccccsccccccccccccteeeccccqmeeccccccc..",
"..ccccccceeueeeeeeeeeeeeeeeeeeeevgeeeeevegeeeeeevgeccccccc..",
"..ccccccceeeeeeeeeeeeeeeeeeeeeeeeeeeeeeeeeeeeeeeeeeccccccc..",
"..ccccccceweeeeeeeeeeeeeeweeeeeeeeweeeweeeeeeeeeeeeccccccc..",
"..ccccccceeccccccccccccccccxccccyzcccccABccBCcccCeeccccccc..",
"..ccccccceecccccccccccccccccccccccccccCCccccccccceeccccccc..",
"..ccccccceecccccccccccccccccccccccccccccccccccccDeeccccccc..",
"..ccccccceeccccccccccccccccccccccccccccccccccccDceeccccccc..",
"..ccccccceecccccccccccccccccccccccccccccccccccccceeccccccc..",
"..ccccccceecEcccccccccccccccccccccccccccccccccccFeeccccccc..",
"..ccccccceecGcccccccccccccccccccccccccccccccccccceeccccccc..",
"..ccccccceecccccccccccccccccccccccccccccccccccccceeccccccc..",
"..ccccccceecccccccccccccccccccccccccccccccccccccceeccccccc..",
"..ccccccceecccccccccccccccccccccccccccccccccccccceeccccccc..",
"..ccccccceecccccccccccccccccccccccccccccccccccccceeccccccc..",
"..ccccccceecccccccccccccccccccccccccccccccccccccceeccccccc..",
"..ccccccceecccccccccccccccccccccccccccccccccccccceeccccccc..",
"..ccccccceecccccccccccccccccccccccccccccccccccccceeccccccc..",
"..ccccccceecccccccccccccccccccccccccccccccccccccceeccccccc..",
"..ccccccceecccccccccccccccccccccccccccccccccccccceeccccccc..",
"..ccccccceecccccccccccccccccccccccccccccccccccccceeccccccc..",
"..ccccccceecccccccccccccccccccccccccccccccccccccceeccccccc..",
"..ccccccceecccccccccccccccccccccccccccccccccccccceeccccccc..",
"..ccccccceecccccccccccccccccccccccccccccccccccccceeccccccc..",
"..ccccccceecccccccccccccccccccccccccccccccccccccceeccccccc..",
"..ccccccceecccccccccccccccccccccccccccccccccccccceeccccccc..",
"..ccccccceecccccccccccccccccccccccccccccccccccccceeccccccc..",
"..ccccccceecccccccccccccccccccccccccccccccccccccceeccccccc..",
"..ccccccceecccccccccccccccccccccccccccccccccccccceeccccccc..",
"..cccccccHHIccccccccccccccccccccccccccccccccccccIJJccccccc..",
"..cccccccKKLeeeeeeeeeeeeeeeeeeeeeeeeeeeeeeeeeeeeJMMccccccc..",
"..cccccccKKLeeeeeeeeeeeeeeeeeeeeeeeeeeeeeeeeeeeeJMMccccccc..",
"..cccccccccccccccccccccccccccccccccccccccccccccccccccccccc..",
"..cccccccccccccccccccccccccccccccccccccccccccccccccccccccc..",
"..bbbccccccccccccccccccccccccccccccccccccccccccccccccccccc..",
"..bbbccccccccccccccccccccccccccccccccccccccccccccccccccccc..",
"..dddbbccccccccccccccccccccccccccccccccccccccccccccccccdNN..",
"..##dccccccccccccccccccccccccccccccccccccccccccccccccccNOO..",
"..##dccccccccccccccccccccccccccccccccccccccccccccccccccNOO..",
"............................................................",
"............................................................"};
