/* XPM */
static char *wxDockingUp[]={
"60 60 25 1",
"e c #4296ce",
"p c #4a4d52",
"g c #4a96ce",
"i c #4a9ace",
"f c #529ace",
"t c #565a5e",
"o c #5e6167",
"s c #63666c",
"r c #696b71",
"u c #797c81",
"l c #828487",
"q c #86878e",
"j c #94bede",
"m c #a0a2a4",
"n c #a5a6ad",
"h c #a5c7de",
"k c #b6b7b9",
". c #c6c3c6",
"# c #c6c7ce",
"w c #c6cbce",
"a c #dedfe7",
"d c #e7e3e7",
"v c #e7e7e7",
"b c #efebef",
"c c #efefef",
"............................................................",
"............................................................",
"..##abbccccccccccccccccccccccccccccccccccccccccccccccbba##..",
"..##abbccccccccccccccccccccccccccccccccccccccccccccccbba##..",
"..aadbbccccccccccccccccccccccccccccccccccccccccccccccbbddd..",
"..bbbccccccccccccccccccccccccccccccccccccccccccccccccccbcc..",
"..bbbccccccccccccccccccccccccccccccccccccccccccccccccccbcc..",
"..cccccccccccccccccccccccccccccccccccccccccccccccccccccccc..",
"..cccccccccccccccccccccccccccccccccccccccccccccccccccccccc..",
"..ccccccceeeeeeeeeeeeeeeeeeeeeeeeeeeeeeeeeeeeeeeeeeccccccc..",
"..ccccccceeeeeeeeeeeeeeeeeeeeeeeeeeeeeeeeeeeeeeeeeeccccccc..",
"..ccccccceeeeeeeeeeeeeeeeeeeeeeeeeeeeeeeeeeeeeeeeeeccccccc..",
"..ccccccceeeeeeeeeeeeeeeeeeeeeeeeeeeeeeeeeeeeeeeeeeccccccc..",
"..ccccccceeeeeeeeeeeeeeeeeeeeeeeeeeeeeeeeeeeeeeeeeeccccccc..",
"..ccccccceecccccccccccccccccccccccccccccccccccccceeccccccc..",
"..ccccccceecccccccccccccccccccccccccccccccccccccceeccccccc..",
"..ccccccceecccccccccccccccccccccccccccccccccccccceeccccccc..",
"..ccccccceecccccccccccccccccccccccccccccccccccccceeccccccc..",
"..ccccccceecccccccccccccccccccccccccccccccccccccceeccccccc..",
"..ccccccceecccccccccccccccccccccccccccccccccccccceeccccccc..",
"..ccccccceecccccccccccccccccccccccccccccccccccccceeccccccc..",
"..ccccccceecccccccccccccccccccccccccccccccccccccceeccccccc..",
"..ccccccceecccccccccccccccccccccccccccccccccccccceeccccccc..",
"..ccccccceecccccccccccccccccccccccccccccccccccccceeccccccc..",
"..ccccccceecccccccccccccccccccccccccccccccccccccceeccccccc..",
"..ccccccceecccccccccccccccccccccccccccccccccccccceeccccccc..",
"..cccccccffccccccccccccccccccccccccccccccccccccccggccccccc..",
"..cccccccffccccccccccccccccccccccccccccccccccccccggccccccc..",
"..ccccccchhieeeeeeeeeeeeeeeeeeeeeeeeeeeeeeeeeeeegjjccccccc..",
"..ccccccchhieeeeeeeeeeeeeeeeeeeeeeeeeeeeeeeeeeeegjjccccccc..",
"..cccccccccccccccccccccccccccccccccccccccccccccccccccccccc..",
"..cccccccccccccccccccccccccccccccccccccccccccccccccccccccc..",
"..cccccccccccccccccccccccccccccccccccccccccccccccccccccccc..",
"..cccccccccccccccccccccccccccccccccccccccccccccccccccccccc..",
"..cccccccccccccccccccccccccccccccccccccccccccccccccccccccc..",
"..cccccccccccccccccccccccccccccccccccccccccccccccccccccccc..",
"..cccccccccccccccccccccccccccccccccccccccccccccccccccccccc..",
"..cccccccccccccccccccccccccccccccccccccccccccccccccccccccc..",
"..cccccccccccccccccccccccccccccccccccccccccccccccccccccccc..",
"..cccccccccccccccccccccccccccccccccccccccccccccccccccccccc..",
"..cccccccccccccccccccccccccccklmcccccccccccccccccccccccccc..",
"..ccccccccccccccccccccccccccnoppcccccccccccccccccccccccccc..",
"..ccccccccccccccccccccccccnnppppnncccccccccccccccccccccccc..",
"..ccccccccccccccccccccccccqrppppstcccccccccccccccccccccccc..",
"..cccccccccccccccccccccccnppppppppnccccccccccccccccccccccc..",
"..cccccccccccccccccccccckoppppppppqmcccccccccccccccccccccc..",
"..cccccccccccccccccccccnupppppppppppnccccccccccccccccccccc..",
"..cccccccccccccccccccccnnppppppppppnnccccccccccccccccccccc..",
"..cccccccccccccccccccccccccccccccccccccccccccccccccccccccc..",
"..cccccccccccccccccccccccccccccccccccccccccccccccccccccccc..",
"..cccccccccccccccccccccccccccccccccccccccccccccccccccccccc..",
"..cccccccccccccccccccccccccccccccccccccccccccccccccccccccc..",
"..cccccccccccccccccccccccccccccccccccccccccccccccccccccccc..",
"..bbbccccccccccccccccccccccccccccccccccccccccccccccccccccc..",
"..bbbccccccccccccccccccccccccccccccccccccccccccccccccccccc..",
"..dddbbccccccccccccccccccccccccccccccccccccccccccccccccdvv..",
"..##dccccccccccccccccccccccccccccccccccccccccccccccccccvww..",
"..##dccccccccccccccccccccccccccccccccccccccccccccccccccvww..",
"............................................................",
"............................................................"};
